# xmcd
# 
# Track frame offsets:
#     150
#     16530
#     35555
#     52515
# 
# Disc length: 1052
# 
# Revision: 0
# Processed by: cddbd v1.5.2PL0 Copyright (c) Steve Scherf et al.
# Submitted via: fre:ac v1.0.17
# 
DISCID=1c041a04
DTITLE=Drop City - Cool Times
DYEAR=0
DGENRE=
TTITLE0=Cool Times
TTITLE1=Fly Away
TTITLE2=Brand New Start
TTITLE3=Cool Times (DC3 vs Jack Styles Catch the Breeze Mix)
EXTD=
EXTT0=
EXTT1=
EXTT2=
EXTT3=
PLAYORDER=
